<svg id="svg" version="1.1" width="600" height="800" xmlns="http://www.w3.org/2000/svg">
  <defs>
    <pattern id="transformedPattern2"
             x="0" y="0" width="1" height="15"
             patternUnits="userSpaceOnUse"
             patternTransform="rotate(90)">
      <circle cx="1" cy="1" r="1" style="stroke: green; fill:green;" />
    </pattern>
    <pattern id="transformedPattern"
          x="0" y="0" width="1" height="15"
          patternUnits="userSpaceOnUse"
          patternTransform="rotate(180)">
      <circle cx="1" cy="1" r="1" style="stroke: black; fill:black;" />
    </pattern>
  </defs>
  <path style="fill: url(#transformedPattern); "
      d="M 542 500 L 373 521 L 476 384 L 402 343 L 337 494 L 271 343 L 197 384 L 300 521 L 131 500 L 131 584 L 300 562 L 197 699 L 271 739 L 337 590 L 402 739 L 476 699 L 373 562 L 542 584 L 542 500 Z" />
  <path style="fill: url(#transformedPattern2); "
     d="M 542 500 L 373 521 L 476 384 L 402 343 L 337 494 L 271 343 L 197 384 L 300 521 L 131 500 L 131 584 L 300 562 L 197 699 L 271 739 L 337 590 L 402 739 L 476 699 L 373 562 L 542 584 L 542 500 Z" />
</svg>